<?xml version="1.0" encoding="utf-8"?>
<!-- Generator: Adobe Illustrator 24.2.3, SVG Export Plug-In . SVG Version: 6.00 Build 0)  -->
<svg version="1.1" id="Capa_1" xmlns="http://www.w3.org/2000/svg" xmlns:xlink="http://www.w3.org/1999/xlink" x="0px" y="0px"
	 viewBox="0 0 800 800" style="enable-background:new 0 0 800 800;" xml:space="preserve">
<style type="text/css">
	.st0{fill:#FFDEA5;}
</style>
<g id="SVGRepo_bgCarrier">
</g>
<g id="SVGRepo_tracerCarrier">
</g>
<g id="SVGRepo_iconCarrier">
	<path class="st0" d="M712.5,105c-17.5-11.3-39.4-13.2-58.5-5L345.5,221.5c-7.3,3-15.1,4.5-23,4.5H125c-34.5,0-62.5,28-62.5,62.5v5
		H0v150h62.5v6.5c0.8,33.9,28.6,61,62.5,61l75,159c10.4,21.8,32.3,35.8,56.5,36H288c34.3-0.3,62-28.2,62-62.5V517l304,121.5
		c7.5,3,15.5,4.5,23.5,4.5c12.5-0.2,24.6-4,35-11c16.7-11.3,26.9-29.9,27.5-50V156.5C739.9,135.8,729.6,116.6,712.5,105L712.5,105z
		 M287.5,288.5V450H125V288.5H287.5z M287.5,643.5H256L194.5,511h93V643.5z M368.5,457.5c-5.9-3-12.1-5.5-18.5-7.5V285
		c6.3-1.3,12.5-3.1,18.5-5.5l309-123v424L368.5,457.5z M741.5,306v125c34.5,0,62.5-28,62.5-62.5S776,306,741.5,306z"/>
</g>
</svg>
