<svg xmlns="http://www.w3.org/2000/svg" version="1.1" viewBox="-5.0 -10.0 110.0 135.0">
 <path d="m92.91 20.199h-7.0898v-6.7031c0-1.7969-1.4648-3.2617-3.2617-3.2617h-26.598c-1.8008 0-3.2617 1.4648-3.2617 3.2617 0.003906 1.4883 0 5.2578 0 6.7031h-5.3984v-6.7031c0-1.7969-1.4648-3.2617-3.2617-3.2617h-26.598c-1.7969 0-3.2617 1.4648-3.2617 3.2617 0.003906 1.4883 0 5.2578 0 6.7031h-7.0898c-1.7031 0-3.0898 1.3867-3.0898 3.0898v51.969c0 1.7031 1.3867 3.0898 3.0898 3.0898h32.641l-1.2266 5.8633c-2.4492-0.070313-4.6094 2.1211-4.5039 4.5703 0.011719 0.54297 0.45703 0.97656 1 0.97656h30.152c0.61328 0.011719 1.082-0.57812 0.99609-1.1719-0.050782-2.4805-2.1797-4.4727-4.6562-4.3789l-1.2266-5.8633h32.641c1.7031 0 3.0898-1.3867 3.0898-3.0898l0.003906-51.965c0-1.7031-1.3867-3.0898-3.0898-3.0898zm-28.938 67.566h-27.793c0.36328-0.91797 1.3047-1.5625 2.2969-1.5508h0.84375 22.359c1.0273 0 1.9258 0.64453 2.293 1.5508zm-23.426-3.5508 1.2266-5.8594h16.453l1.2266 5.8594zm49.375-14.777h-79.844v-6.7539h79.84v6.7539zm0-8.7539h-79.844v-34.242h4.0977v24.496c0 1.7969 1.4648 3.2617 3.2617 3.2617h26.598c1.8008 0 3.2617-1.4648 3.2617-3.2617v-24.496h5.3984v24.496c0 1.7969 1.4648 3.2617 3.2617 3.2617h26.598c1.7969 0 3.2617-1.4648 3.2617-3.2617v-24.496h4.0977v34.242zm-44.621-9.7461c0 0.69531-0.56641 1.2617-1.2617 1.2617h-26.598c-0.69531 0-1.2617-0.56641-1.2617-1.2617v-25.492-6.5195h29.121zm38.52-29.742c-0.015624 2.0352 0.011719 26.953 0 29.742 0 0.69531-0.56641 1.2617-1.2617 1.2617h-26.598c-0.69531 0-1.2617-0.56641-1.2617-1.2617v-32.012h29.121v2.2734zm-29.121-7.6992c0-0.69531 0.56641-1.2617 1.2617-1.2617h26.598c0.69531 0 1.2617 0.56641 1.2617 1.2617v3.4258h-29.121zm-2 8.7031v2.2383h-5.3984v-2.2383zm-36.52-8.7031c0-0.69531 0.56641-1.2617 1.2617-1.2617h26.598c0.69531 0 1.2617 0.56641 1.2617 1.2617v3.4258h-29.121zm77.82 61.766c0 0.60156-0.48828 1.0898-1.0898 1.0898h-85.82c-0.60156 0-1.0898-0.48828-1.0898-1.0898v-51.973c0-0.60156 0.48828-1.0898 1.0898-1.0898h7.0898v2.2383h-5.0977c-0.55469 0-1 0.44922-1 1v36.223c-0.011719 0.015625 0 8.7539-0.003906 8.7734 0 0.55469 0.44922 1.0039 1.0039 1.0039h81.84c0.55469 0 1.0039-0.44922 1.0039-1.0039-0.003906-0.019532 0.007813-8.7578-0.003906-8.7734v-36.219c0-0.55078-0.44531-1-1-1h-5.0977v-2.2383h7.0898c0.60156 0 1.0898 0.48828 1.0898 1.0898v51.969z"/>
 <path d="m50.262 72.914h-0.51953c-1.3125 0.023438-1.3125 1.9766 0 2h0.51953c1.3125-0.023437 1.3125-1.9766 0-2z"/>
 <path d="m49.738 67.059h0.51953c1.3125-0.023438 1.3125-1.9766 0-2h-0.51953c-1.3125 0.023437-1.3125 1.9766 0 2z"/>
 <path d="m56.047 67.059h0.51953c1.3125-0.023438 1.3125-1.9766 0-2h-0.51953c-1.3125 0.023437-1.3125 1.9766 0 2z"/>
 <path d="m62.352 67.059h0.52344c1.3125-0.023438 1.3125-1.9766 0-2h-0.52344c-1.3125 0.023437-1.3125 1.9766 0 2z"/>
 <path d="m43.434 67.059h0.51953c1.3125-0.023438 1.3125-1.9766 0-2h-0.51953c-1.3125 0.023437-1.3125 1.9766 0 2z"/>
 <path d="m37.129 67.059h0.52344c1.3125-0.023438 1.3125-1.9766 0-2h-0.52344c-1.3125 0.023437-1.3125 1.9766 0 2z"/>
 <path d="m23.363 43.227c0.375 0.36719 0.875 0.55469 1.3711 0.5l5.5938 5.5938c0.37109 0.38672 1.043 0.38672 1.4141 0l1.3242-1.3242c0.83594-0.80078 0.83594-2.2422 0-3.0391l-4.7031-4.7031c3.2305-2.3984 6.2734-3.9492 8.6797-4.4336l0.42188 0.42188c0.92578 0.92187 2.3359-0.48438 1.4141-1.4141-1.8203-1.8086-8.3438-8.3633-10.277-10.277l-0.77344-0.77344c-0.92969-0.92188-2.3359 0.48438-1.4141 1.4141l0.42578 0.42578c-0.57031 3.0352-2.6523 6.3516-4.4727 8.7773-0.36719 0.050781-0.72266 0.20312-1 0.48047l-1.9531 1.9531c-0.66797 0.69141-0.66797 1.7695 0.011719 2.4727l3.9297 3.9297zm8.332 3.2461c0.042969 0.078125-0.625 0.66406-0.66016 0.72266l-4.5859-4.582 0.72266-0.72266 4.4766 4.4766c0.035156 0.035156 0.042968 0.078124 0.042968 0.10547zm-3.1836-19.191 6.8789 6.8789c-2.8516 0.86328-5.7305 2.6562-7.9609 4.2852-0.79688-0.79687-2.4062-2.4062-3.1992-3.1953 1.6367-2.2305 3.4297-5.1133 4.2773-7.9688zm-5.8984 9.1797c0.89453 0.89062 2.6875 2.6875 3.582 3.5781-0.39844 0.39844-1.1992 1.1992-1.5977 1.5977l-3.582-3.582 1.5977-1.5977z"/>
 <path d="m32.207 24.746c0.54297 0.039062 1.0312-0.37891 1.0664-0.92969l0.18359-2.6523c0.035157-0.55078-0.37891-1.0273-0.92969-1.0664-0.54297-0.027344-1.0273 0.37891-1.0664 0.92969l-0.18359 2.6523c-0.035156 0.55078 0.37891 1.0273 0.92969 1.0664z"/>
 <path d="m37.906 30.445c0.035156 0.55078 0.52344 0.96875 1.0664 0.92969l2.6523-0.17969c0.55078-0.039062 0.96875-0.51562 0.92969-1.0664-0.035157-0.55078-0.49219-0.95703-1.0664-0.92969l-2.6523 0.17969c-0.55078 0.039063-0.96875 0.51562-0.92969 1.0664z"/>
 <path d="m35.98 27.68c0.25781 0 0.51172-0.097657 0.70703-0.29297l1.6758-1.6758c0.39062-0.39063 0.39062-1.0234 0-1.4141s-1.0234-0.39062-1.4141 0l-1.6758 1.6758c-0.63672 0.59375-0.14844 1.7383 0.70703 1.707z"/>
 <path d="m61.559 43.992c4.1641 3.9102 11.246 3.9062 15.41 0 7.8672-6.9414 2.9023-20.203-7.707-20.199-10.605-0.007813-15.57 13.262-7.7031 20.199zm5.2109-10.625c0.085938-3.2852 4.8984-3.2852 4.9844 0-0.085937 3.2852-4.8984 3.2852-4.9844 0zm2.4922 4.4922c2.7852 0 5.1719 2.1055 5.8516 5.082-3.3086 2.6367-8.3945 2.6406-11.699 0 0.67969-2.9766 3.0625-5.0859 5.8516-5.082zm0-12.066c7.9766-0.070313 12.496 9.4805 7.4609 15.574-0.79688-2.1875-2.3594-3.9062-4.3086-4.8086 2.8477-2.707 0.82031-7.7383-3.1523-7.6875-3.9727-0.050782-6 4.9805-3.1523 7.6875-1.9492 0.90234-3.5117 2.6172-4.3086 4.8086-5.0352-6.0938-0.51172-15.645 7.4609-15.574z"/>
 <path d="m18.945 13.578c-1.3477-0.019531-1.3359 1.9844 0 2 1.3125-0.023437 1.3125-1.9766 0-2z"/>
 <path d="m22.363 13.578c-1.3477-0.019531-1.3359 1.9844 0 2 1.3125-0.023437 1.3125-1.9766 0-2z"/>
 <path d="m25.777 13.578c-1.3477-0.019531-1.3359 1.9844 0 2 1.3125-0.023437 1.3125-1.9766 0-2z"/>
 <path d="m57.469 13.578c-1.3477-0.019531-1.3359 1.9844 0 2 1.3125-0.023437 1.3125-1.9766 0-2z"/>
 <path d="m60.887 13.578c-1.3477-0.019531-1.3359 1.9844 0 2 1.3125-0.023437 1.3125-1.9766 0-2z"/>
 <path d="m64.301 13.578c-1.3477-0.019531-1.3359 1.9844 0 2 1.3125-0.023437 1.3125-1.9766 0-2z"/>
<text x="0.0" y="117.5" font-size="5.0" font-weight="bold" font-family="Arbeit Regular, Helvetica, Arial-Unicode, Arial, Sans-serif" fill="#000000">Created by Fahrul Oktaviana</text><text x="0.0" y="122.5" font-size="5.0" font-weight="bold" font-family="Arbeit Regular, Helvetica, Arial-Unicode, Arial, Sans-serif" fill="#000000">from Noun Project</text></svg>