<svg xmlns="http://www.w3.org/2000/svg" version="1.1" viewBox="-5.0 -10.0 110.0 135.0">
 <path d="m92.027 13.891c-1.5898-1.5195-3.7188-2.3516-5.918-2.3086h-72.219c-2.1992-0.042969-4.3281 0.78906-5.918 2.3086-1.5742 1.5859-2.4453 3.7344-2.418 5.9688v60.281c-0.027344 2.2344 0.84375 4.3828 2.418 5.9688 1.5898 1.5195 3.7188 2.3516 5.918 2.3086h72.219c4.6055 0 8.3359-3.7305 8.3359-8.3359v-60.223c0.027344-2.2344-0.84375-4.3828-2.418-5.9688zm-80.918 3.3047c0.74609-0.71484 1.7461-1.1055 2.7812-1.0859h72.219c1-0.011719 1.9648 0.375 2.6719 1.082 0.70312 0.70703 1.0938 1.6719 1.0781 2.668v13.668l-30.164 14.973c-6.1289 3.0195-13.316 3.0195-19.445 0l-30.168-14.973v-13.668c-0.007812-0.98438 0.35938-1.9375 1.0273-2.6641zm77.781 65.609c-0.74609 0.71484-1.7461 1.1055-2.7812 1.0859h-72.219c-1 0.011719-1.9648-0.375-2.6719-1.082-0.70312-0.70703-1.0938-1.6719-1.0781-2.668v-41.668l28.223 13.891-0.003906-0.003906c7.3828 3.5938 16.008 3.5938 23.391 0l28.223-13.891v41.672c-0.007812 0.99219-0.39453 1.9492-1.082 2.6641z"/>
<text x="0.0" y="117.5" font-size="5.0" font-weight="bold" font-family="Arbeit Regular, Helvetica, Arial-Unicode, Arial, Sans-serif" fill="#000000">Created by Wahyu Adam</text><text x="0.0" y="122.5" font-size="5.0" font-weight="bold" font-family="Arbeit Regular, Helvetica, Arial-Unicode, Arial, Sans-serif" fill="#000000">from Noun Project</text></svg>