<svg xmlns="http://www.w3.org/2000/svg" version="1.1" viewBox="-5.0 -10.0 110.0 135.0">
 <path d="m94.445 7.8047c0-0.59766-0.23828-1.168-0.66016-1.5898s-0.99219-0.66016-1.5898-0.66016h-69.305c-1.25 0-2.2656 1.0039-2.2812 2.25v18.086c0 0.30469 0 32.25-14.641 53.055h0.003906c-0.49219 0.68359-0.55859 1.5859-0.16797 2.332 0.39062 0.74609 1.1602 1.2148 2 1.2227h69.75c0.72656-0.003906 1.4102-0.35547 1.8359-0.94531 4.7656-6.9648 8.3242-14.684 10.527-22.832v31.195h-67.027c-1.2578 0-2.2812 1.0195-2.2812 2.2773 0.015625 1.2461 1.0312 2.25 2.2812 2.25h69.305c1.2422 0 2.25-1.0078 2.25-2.25zm-69.305 2.2773h64.777v13.559h-64.777zm51.219 67.918h-64.359c11.305-18.527 13-42.391 13-49.832h64.891c-0.14062 7.4727-1.6133 32.277-13.531 49.832z"/>
<text x="0.0" y="117.5" font-size="5.0" font-weight="bold" font-family="Arbeit Regular, Helvetica, Arial-Unicode, Arial, Sans-serif" fill="#000000">Created by Wahyu Adam</text><text x="0.0" y="122.5" font-size="5.0" font-weight="bold" font-family="Arbeit Regular, Helvetica, Arial-Unicode, Arial, Sans-serif" fill="#000000">from Noun Project</text></svg>