<svg xmlns="http://www.w3.org/2000/svg" version="1.1" viewBox="-5.0 -10.0 110.0 135.0">
 <path d="m57.246 56.938-7.3594 1.9727c-1.9414 0.51953-3.5703 1.7734-4.5781 3.5234-1.0117 1.75-1.2812 3.7852-0.76172 5.7305 0.51953 1.9414 1.7695 3.5703 3.5234 4.5781 1.168 0.67578 2.4648 1.0195 3.7734 1.0195 0.28516 0 0.57422-0.019531 0.86328-0.054688l0.83203 1.4414h-24.52c-1.1914 0-2.1641-0.97266-2.1641-2.1602v-6.2695h3.5664c1.4297 0 2.5898-1.1602 2.5898-2.5898v-9.1641c0-1.4258-1.1602-2.5898-2.5898-2.5898h-3.5625l0.035156-10.09 3.0195 1.7422c0.14844 0.085937 0.3125 0.12891 0.47656 0.12891s0.32812-0.042969 0.47656-0.12891c0.29687-0.17188 0.48047-0.48828 0.48047-0.82812v-1.9883c0.94922-0.38281 1.625-1.3125 1.625-2.3984v-9.125c0-1.4258-1.1602-2.582-2.582-2.582h-3.5352v-7.8711c0-1.1914 0.97266-2.1602 2.1641-2.1602h31.379c1.1914 0 2.1602 0.97266 2.1602 2.1602v2.7734h-17.727c-2.0898 0-3.7891 1.6992-3.7891 3.7891v15.918c0 2.0898 1.6992 3.7891 3.7891 3.7891h17.758l-0.027344 8.3633-5.3125 3.0664zm-2.5859 16.336 4.3633 7.5547c0.43359 0.75391 1.4023 1.0156 2.1523 0.57812 0.75391-0.4375 1.0117-1.4023 0.57812-2.1562l-3.9375-6.8242-3.1523 0.84766zm2.2773-14.27-6.5586 1.7578c-1.4453 0.38672-2.6641 1.3242-3.418 2.6328-0.75781 1.3086-0.95703 2.8281-0.57031 4.2773s1.3242 2.6602 2.6328 3.4219c1.3086 0.75781 2.8281 0.95703 4.2773 0.57031l6.5586-1.7578-2.9219-10.898zm4.5 15.875c0.67188-0.37891 1.1172-1.1016 1.1172-1.8906v-1.457h-1.4023l-1.4258 0.38281 1.7109 2.9609zm25.758-4.5469-6.7969-25.367c-0.078126-0.28516-0.28125-0.52344-0.55859-0.63672-0.27344-0.11328-0.58594-0.09375-0.84375 0.054687l-9.5195 5.4961 0.019532-4.3711h1.4922c2.0898 0 3.7891-1.6992 3.7891-3.7891v-15.918c0-2.0898-1.6992-3.7891-3.7891-3.7891h-1.5234v-3.4531c0-4.7188-3.8359-8.5547-8.5547-8.5547l-32.414-0.003906c-4.7188 0-8.5547 3.8398-8.5547 8.5547v8.5508h-4.5547c-1.4219 0-2.582 1.1562-2.582 2.582v9.125c0 1.4219 1.1562 2.582 2.582 2.582h4.5977l-0.039063 10.98h-4.5898c-1.4258 0-2.5898 1.1602-2.5898 2.5898v9.1641c0 1.4297 1.1602 2.5898 2.5898 2.5898h4.5859v14.73c0 4.7148 3.8359 8.5547 8.5547 8.5547l32.422-0.003906c4.7188 0 8.5547-3.8398 8.5547-8.5547v-9.9141h16.797c0.30078 0 0.57812-0.13672 0.76562-0.375 0.17969-0.23438 0.23438-0.54297 0.16406-0.82812zm-32.473-41.66c-1.5742 0-2.8555 1.2812-2.8555 2.8555 0 1.6406 1.0273 2.4883 2.8438 3.8398 1.0391 0.77344 2.1875 1.6289 3.2031 2.832 1.0195-1.2031 2.1641-2.0586 3.2031-2.832 1.8125-1.3516 2.8438-2.1992 2.8438-3.8398 0-1.5742-1.2812-2.8555-2.8555-2.8555-0.98828 0-1.8867 0.44922-2.3984 1.2031-0.17969 0.26172-0.47656 0.41406-0.78906 0.41406-0.31641 0-0.60938-0.15625-0.78906-0.41406-0.51562-0.75391-1.4102-1.2031-2.3984-1.2031zm-33.277 31.988v-2.2305l1.9336 1.1172zm27.215 23.293h-7.9062c-0.76172 0-1.3828-0.61719-1.3828-1.3828 0-0.76172 0.62109-1.3828 1.3828-1.3828h7.9062c0.76172 0 1.3828 0.62109 1.3828 1.3828 0 0.76172-0.61719 1.3828-1.3828 1.3828z" fill-rule="evenodd"/>
<text x="0.0" y="117.5" font-size="5.0" font-weight="bold" font-family="Arbeit Regular, Helvetica, Arial-Unicode, Arial, Sans-serif" fill="#000000">Created by adiba</text><text x="0.0" y="122.5" font-size="5.0" font-weight="bold" font-family="Arbeit Regular, Helvetica, Arial-Unicode, Arial, Sans-serif" fill="#000000">from Noun Project</text></svg>