<svg xmlns="http://www.w3.org/2000/svg" version="1.1" viewBox="-5.0 -10.0 110.0 135.0">
 <path d="m92.109 6.4453c-1.4609-0.97656-3.3125-1.1641-4.9414-0.5l-37.363 15.359h-35.914c-4.6055 0-8.3359 3.7305-8.3359 8.3359v30.941c0 4.6055 3.7305 8.3359 8.3359 8.3359h8.332l6.1406 19.75h-0.003906c1.1172 3.4648 4.3594 5.8047 8 5.7773h13.641c0.71484 0.007813 1.3906-0.33594 1.8047-0.91797 0.43359-0.58203 0.56641-1.332 0.36328-2.0273l-7.0547-22.641h4.6953l37.359 15.359v0.003906c1.6289 0.66406 3.4805 0.47656 4.9414-0.5 1.4648-0.98047 2.3438-2.6289 2.3359-4.3906v-68.5c-0.003906-1.7578-0.875-3.4023-2.3359-4.3867zm-45.164 83.473h-10.586c-1.6523 0.011719-3.1211-1.0586-3.6094-2.6406l-5.7227-18.418h13.359zm42.973-10.582v-0.003907c0.003906 0.25781-0.12109 0.5-0.33594 0.64062-0.21484 0.125-0.47656 0.125-0.69141 0l-37.781-15.473c-0.27344-0.10938-0.5625-0.16406-0.85938-0.16797h-36.359c-2.0664-0.015625-3.7383-1.6836-3.75-3.75v-31c0.011719-2.0625 1.6836-3.7344 3.75-3.75h36.359c0.29688 0 0.58594-0.054687 0.85938-0.16406l37.781-15.527c0.21484-0.125 0.47656-0.125 0.69141 0 0.21484 0.14062 0.33984 0.38281 0.33594 0.63672z"/>
<text x="0.0" y="117.5" font-size="5.0" font-weight="bold" font-family="Arbeit Regular, Helvetica, Arial-Unicode, Arial, Sans-serif" fill="#000000">Created by Wahyu Adam</text><text x="0.0" y="122.5" font-size="5.0" font-weight="bold" font-family="Arbeit Regular, Helvetica, Arial-Unicode, Arial, Sans-serif" fill="#000000">from Noun Project</text></svg>