<svg xmlns="http://www.w3.org/2000/svg" version="1.1" viewBox="-5.0 -10.0 110.0 135.0">
 <path d="m93.25 39.973-35.527-18.805v-13.363c-0.007812-0.70313-0.33594-1.3672-0.89062-1.8047-0.55078-0.44922-1.2812-0.61328-1.9727-0.44531-3.4531 0.93359-6.5938 2.7852-9.082 5.3555-2.4883 2.5742-4.2344 5.7734-5.0547 9.2578-6.2344 0.074219-12.176 2.6484-16.5 7.1367-16.973 18.527-18.668 62.945-18.668 64.805-0.015626 0.60938 0.21484 1.1992 0.63672 1.6367 0.42578 0.44141 1.0039 0.69141 1.6133 0.69922h65.555c0.64062 0 1.2461-0.27344 1.668-0.75 0.42188-0.47266 0.63281-1.0938 0.58203-1.7227l-1.6406-16.195h0.003906c-0.042968-0.47266-0.23828-0.92188-0.55469-1.2773l-13.527-15.305c3.0938 0.33594 6.2148-0.31641 8.9141-1.8633l10.391 2.7773c3.9805 0.99609 8.0938-1.0547 9.6953-4.832l5.3906-12.418h-0.003906c0.46875-1.082 0.019531-2.3438-1.0273-2.8867zm-8.5273 13.5c-0.71484 1.7148-2.5977 2.6328-4.3906 2.1367l-11.305-2.7773c-0.59375-0.15625-1.2227-0.0625-1.75 0.25-4.2773 2.7773-8.668 2.332-13.891-0.97266h0.003906c-0.94922-0.62109-2.2109-0.44141-2.9453 0.41797-0.73047 0.84375-0.73047 2.1016 0 2.9453l19 21.473 1.3047 13h-60.555c0.58203-9.3906 3.6953-44.586 17.359-59.613 3.918-3.8086 9.2383-5.8203 14.695-5.5547 1.1289 0.097656 2.1602-0.64453 2.418-1.75 0.80469-5.0938 3.9648-9.5117 8.5273-11.918v11.418c0.003907 0.83594 0.47656 1.5977 1.2227 1.9727l34.859 18.473z"/>
<text x="0.0" y="117.5" font-size="5.0" font-weight="bold" font-family="Arbeit Regular, Helvetica, Arial-Unicode, Arial, Sans-serif" fill="#000000">Created by Wahyu Adam</text><text x="0.0" y="122.5" font-size="5.0" font-weight="bold" font-family="Arbeit Regular, Helvetica, Arial-Unicode, Arial, Sans-serif" fill="#000000">from Noun Project</text></svg>