<svg xmlns="http://www.w3.org/2000/svg" version="1.1" viewBox="-5.0 -10.0 110.0 135.0">
 <path d="m50 32.668c-4.5977 0-9.0078 1.8242-12.258 5.0742s-5.0742 7.6602-5.0742 12.258 1.8242 9.0078 5.0742 12.258 7.6602 5.0742 12.258 5.0742 9.0078-1.8242 12.258-5.0742 5.0742-7.6602 5.0742-12.258c-0.007812-4.5938-1.8359-9-5.082-12.25-3.25-3.2461-7.6562-5.0742-12.25-5.082zm0 30.141v-0.003906c-5.1797 0-9.8477-3.1172-11.832-7.9023-1.9805-4.7852-0.88672-10.293 2.7773-13.957 3.6641-3.6641 9.1719-4.7578 13.957-2.7773 4.7852 1.9844 7.9023 6.6523 7.9023 11.832-0.015626 7.0664-5.7383 12.789-12.805 12.805z"/>
 <path d="m93.332 45.859-18.082-31.332c-1.4883-2.5508-4.2148-4.125-7.168-4.1367h-36.109c-2.9727-0.007813-5.7266 1.5664-7.2227 4.1367l-18.082 31.332c-1.4883 2.582-1.4883 5.7578 0 8.3359l18.082 31.277c1.4883 2.5508 4.2148 4.125 7.168 4.1367h36.109c2.9531-0.011719 5.6797-1.5859 7.168-4.1367l18.137-31.332c1.4688-2.5664 1.4688-5.7148 0-8.2812zm-3.918 6.0273-18.082 31.445c-0.66406 1.168-1.9062 1.8867-3.25 1.8906h-36.109c-1.3633 0.019532-2.6289-0.70703-3.3047-1.8906l-18.086-31.441c-0.66797-1.1719-0.66797-2.6094 0-3.7812l18.086-31.305c0.66406-1.1641 1.9062-1.8867 3.25-1.8867h36.109c1.3438 0 2.582 0.72266 3.25 1.8867l18.082 31.305c0.6875 1.1641 0.71094 2.5977 0.058594 3.7812z"/>
<text x="0.0" y="117.5" font-size="5.0" font-weight="bold" font-family="Arbeit Regular, Helvetica, Arial-Unicode, Arial, Sans-serif" fill="#000000">Created by Wahyu Adam</text><text x="0.0" y="122.5" font-size="5.0" font-weight="bold" font-family="Arbeit Regular, Helvetica, Arial-Unicode, Arial, Sans-serif" fill="#000000">from Noun Project</text></svg>