<svg xmlns="http://www.w3.org/2000/svg" version="1.1" viewBox="-5.0 -10.0 110.0 135.0">
 <path d="m22.891 62.777c-0.9375-0.011719-1.7891 0.54688-2.1523 1.4102-0.36719 0.86328-0.17188 1.8633 0.49219 2.5273 0.66406 0.66016 1.6602 0.85547 2.5273 0.49219 0.86328-0.36328 1.4219-1.2148 1.4102-2.1523-0.015625-1.25-1.0273-2.2617-2.2773-2.2773z"/>
 <path d="m34.223 62.777c-0.9375-0.011719-1.7891 0.54688-2.1523 1.4102-0.36328 0.86328-0.16797 1.8633 0.49219 2.5273 0.66406 0.66016 1.6641 0.85547 2.5273 0.49219 0.86328-0.36328 1.4219-1.2148 1.4102-2.1523-0.015625-1.25-1.0273-2.2617-2.2773-2.2773z"/>
 <path d="m92.027 17.027c-1.5664-1.5703-3.6953-2.4492-5.918-2.4453h-72.219c-2.2031 0.011719-4.3086 0.89062-5.8633 2.4453-1.5664 1.5508-2.457 3.6562-2.4727 5.8633v54.219c0.003906 2.1992 0.87109 4.3047 2.418 5.8633 1.5664 1.5703 3.6953 2.4492 5.918 2.4453h72.219c4.6055 0 8.3359-3.7305 8.3359-8.3359v-54.191c-0.003906-2.1992-0.87109-4.3047-2.418-5.8633zm-80.918 3.1953c0.74609-0.72266 1.7422-1.125 2.7812-1.1133h72.219c1.0391-0.011719 2.0352 0.39062 2.7812 1.1133 0.72656 0.73828 1.1172 1.7422 1.082 2.7773v9.7773h-79.891v-9.8867c-0.019531-0.99219 0.35156-1.9492 1.0273-2.668zm77.781 59.555c-0.74609 0.72266-1.7422 1.125-2.7812 1.1133h-72.219c-1.0391 0.011719-2.0352-0.39062-2.7812-1.1133-0.72656-0.73828-1.1172-1.7422-1.082-2.7773v-39.805h79.891v39.914c0.019531 0.99219-0.35156 1.9492-1.0273 2.668z"/>
<text x="0.0" y="117.5" font-size="5.0" font-weight="bold" font-family="Arbeit Regular, Helvetica, Arial-Unicode, Arial, Sans-serif" fill="#000000">Created by Wahyu Adam</text><text x="0.0" y="122.5" font-size="5.0" font-weight="bold" font-family="Arbeit Regular, Helvetica, Arial-Unicode, Arial, Sans-serif" fill="#000000">from Noun Project</text></svg>